PathFileType  4	(X/Y/Z) C:\Users\antoi\Documents\MyRepositories\mobilecap\ResultsAnalysis
DataRate	CameraRate	NumFrames	NumMarkers	Units	OrigDataRate	OrigDataStartFrame	OrigNumFrames
100.0	100.0	6	51	mm	100.0	131	149
Frame#	Time	r_knee			r_shank_antsup			r_ankle			r_calc			r_5meta			r_toe			L_knee			L_shank_antsup			L_ankle			L_calc			L_5meta			L_toe			r_sh2			r_sh3			r_sh4			L_sh2			L_sh3			r_thigh1			r_thigh2			r_thigh3			r_thigh4			r_thigh5			L_thigh1			L_thigh2			L_thigh3			L_thigh4			r.ASIS			r.PSIS			L.ASIS			L.PSIS			C7			R_Shoulder			L_Shoulder			R_Sternum			L_Sternum			R_humerus			R_elbow_med			R_elbow_lat			R_forearm			R_wrist_radius			R_wrist_ulna			L_humerus			L_elbow_med			L_elbow_lat			L_forearm			L_wrist_radius			L_wrist_ulna			R_HJC			L_HJC			R_HJC_reg			L_HJC_reg			
		X1	Y1	Z1	X2	Y2	Z2	X3	Y3	Z3	X4	Y4	Z4	X5	Y5	Z5	X6	Y6	Z6	X7	Y7	Z7	X8	Y8	Z8	X9	Y9	Z9	X10	Y10	Z10	X11	Y11	Z11	X12	Y12	Z12	X13	Y13	Z13	X14	Y14	Z14	X15	Y15	Z15	X16	Y16	Z16	X17	Y17	Z17	X18	Y18	Z18	X19	Y19	Z19	X20	Y20	Z20	X21	Y21	Z21	X22	Y22	Z22	X23	Y23	Z23	X24	Y24	Z24	X25	Y25	Z25	X26	Y26	Z26	X27	Y27	Z27	X28	Y28	Z28	X29	Y29	Z29	X30	Y30	Z30	X31	Y31	Z31	X32	Y32	Z32	X33	Y33	Z33	X34	Y34	Z34	X35	Y35	Z35	X36	Y36	Z36	X37	Y37	Z37	X38	Y38	Z38	X39	Y39	Z39	X40	Y40	Z40	X41	Y41	Z41	X42	Y42	Z42	X43	Y43	Z43	X44	Y44	Z44	X45	Y45	Z45	X46	Y46	Z46	X47	Y47	Z47	X48	Y48	Z48	X49	Y49	Z49	X50	Y50	Z50	X51	Y51	Z51	

131	1.30000000	1407.50365	459.29298	-71.77307	1458.83966	409.93568	-82.47257	1464.36108	79.34248	-111.35441	1412.63216	49.92889	-153.93579	1580.00830	44.86876	-97.92610	1615.65561	76.18889	-152.79382	1122.32255	472.68154	-314.95084	1113.85476	380.69432	-301.75975	902.87599	144.93594	-297.35530	833.88966	143.88968	-255.05843	963.60928	40.41093	-305.65520	1013.77045	41.88917	-249.89437	1466.06986	297.53531	-80.08138	1389.61732	404.57339	-48.22688	1387.80029	287.58611	-52.21701	1057.21935	436.47975	-340.68344	983.94457	337.64596	-347.77767	1377.93408	701.28764	-10.07100	1411.62748	595.99035	-37.17368	1356.60250	554.80081	-35.27583	1270.02081	667.15069	-19.35252	1305.41735	563.68122	-55.00053	1254.18538	717.19028	-371.12095	1217.58769	588.11948	-342.25837	1147.41498	749.06362	-363.69723	1111.56579	624.76057	-311.78674	1379.77267	887.72592	-85.77726	1167.01069	944.22587	-124.50543	1355.54423	890.35330	-306.98400	1162.85730	948.16345	-205.86705	1297.22851	1361.12467	-234.11164	1363.89743	1355.65291	-91.90699	1318.31764	1294.70927	-363.52672	1417.44234	1287.26311	-211.07061	1409.86767	1278.09758	-249.88644	1375.67333	1255.91952	-9.11244	1252.15626	1077.99909	46.14018	1300.11795	1089.70847	90.86502	1357.09707	1015.18776	105.96962	1388.11052	874.38860	126.84104	1364.74949	878.33650	158.18014	1305.62689	1184.67907	-418.30356	1222.11994	977.46055	-378.11327	1249.26037	989.13277	-438.40487	1301.26649	894.92156	-449.13479	1329.45942	769.56891	-433.36158	1295.75621	764.26576	-456.51262	1288.98314	810.92593	-79.56672	1260.89652	818.57551	-285.02880	1293.33286	825.15075	-114.74274	1285.85244	832.24301	-261.25834	
132	1.31000000	1418.82988	460.62432	-70.89744	1469.34589	409.89066	-81.77540	1466.46281	79.24528	-111.32944	1413.79943	51.04409	-153.59702	1581.48656	42.45859	-98.26332	1617.75676	71.40577	-153.70075	1139.70323	470.62755	-317.97232	1129.66780	378.68918	-305.79673	910.50245	149.37277	-299.99141	841.87707	152.88817	-257.57061	965.23914	41.02305	-306.18581	1015.75242	41.49742	-250.64971	1474.10152	297.40709	-79.41116	1400.20850	406.01125	-47.21002	1395.70116	289.03815	-51.27149	1073.75220	436.42730	-343.69750	997.51785	340.09926	-350.60618	1389.67929	702.82512	-9.19719	1423.16074	597.33447	-36.11783	1367.93969	556.38287	-34.75673	1281.72643	669.00893	-19.03392	1316.96355	565.28613	-54.20653	1268.28093	717.15088	-371.56678	1233.39308	587.33688	-344.20636	1161.22687	747.61764	-363.28423	1127.20909	622.50140	-313.06922	1392.13362	888.91198	-85.57120	1179.41756	945.28520	-125.25045	1368.38256	890.93290	-306.81435	1175.62345	948.72102	-206.75106	1309.64846	1363.32466	-228.84655	1376.50166	1355.34418	-86.84076	1330.48580	1299.22467	-359.39178	1430.03899	1289.35302	-206.95972	1422.30162	1280.76613	-245.87526	1388.77940	1254.31931	-5.85151	1266.26520	1075.08670	46.88436	1314.23050	1086.35482	91.72759	1371.29082	1011.74425	105.93686	1402.42596	870.74030	125.23076	1379.09348	874.23824	156.62749	1316.43347	1189.88087	-415.57727	1231.57550	983.11674	-376.80728	1258.02853	995.15457	-437.08109	1308.40837	900.35928	-449.78245	1334.52383	774.23645	-436.23058	1300.33157	769.91765	-459.03167	1301.30759	812.12611	-79.45388	1273.89867	819.07383	-285.02641	1305.57691	826.57177	-114.50112	1298.75066	832.75357	-261.07168	
133	1.32000000	1429.98490	462.05401	-69.96047	1479.32288	409.86156	-80.96224	1468.00956	79.24032	-111.19014	1414.63873	52.07471	-153.24892	1582.55326	40.84866	-98.44506	1619.23811	67.58835	-154.36176	1158.68896	467.97275	-321.20768	1146.98271	376.19282	-309.99044	919.22389	154.31310	-302.61655	851.36455	162.89898	-260.00162	967.17055	42.24733	-306.71259	1018.07646	41.42037	-251.50816	1481.54135	297.34830	-78.62941	1410.27198	407.53367	-46.14826	1403.02214	290.62474	-50.24956	1092.02996	435.86354	-347.07146	1012.70168	342.30776	-353.66091	1401.52225	704.76466	-8.42346	1434.84900	599.07991	-35.10369	1379.52669	558.29999	-34.03762	1293.59068	671.06671	-18.38220	1328.59407	567.19387	-53.11541	1283.12184	716.91790	-371.84151	1250.31531	586.20900	-346.14460	1175.54661	745.61838	-362.94582	1143.65711	619.61822	-314.64892	1404.33207	890.52591	-85.28697	1191.52225	946.65025	-126.20334	1380.98020	891.59755	-306.46354	1188.12178	949.46056	-207.82873	1321.89737	1365.68694	-223.66119	1389.00775	1355.16744	-81.93001	1342.78582	1303.91522	-355.28719	1442.52588	1291.54199	-202.84459	1434.70926	1283.51825	-241.81948	1401.82568	1252.89942	-2.77653	1280.30582	1072.49900	47.43199	1328.36210	1083.23853	92.42052	1385.54715	1008.57830	105.67805	1416.86444	867.35219	123.34187	1393.62856	870.44750	154.81085	1327.35589	1195.29714	-412.89504	1241.13412	989.15121	-375.35892	1266.93047	1001.42253	-435.69866	1315.72439	906.12431	-450.38631	1339.84305	779.37292	-439.07081	1305.20776	775.96820	-461.40979	1313.36434	813.76601	-79.18154	1286.74867	819.64200	-284.88275	1317.60850	828.36865	-114.10050	1311.49829	833.41718	-260.66749	
134	1.33000000	1440.65331	463.39170	-69.05241	1488.59071	409.75184	-80.10553	1469.15027	79.26081	-110.98569	1415.20205	53.03485	-152.94515	1583.30859	39.81801	-98.54964	1620.27319	64.65410	-154.82661	1179.19027	464.85315	-324.61680	1165.56161	373.30240	-314.13242	929.12174	159.86106	-305.17563	862.54368	173.89985	-262.22798	969.52444	44.35990	-307.24162	1020.90269	41.86293	-252.53048	1488.29065	297.25264	-77.82111	1419.60044	408.97187	-45.15434	1409.68111	292.19240	-49.25214	1111.98010	434.86437	-350.71481	1029.45510	344.32541	-356.85464	1413.38110	706.83912	-7.77596	1446.45976	600.92839	-34.19482	1391.07911	560.33736	-33.18314	1305.48363	673.21681	-17.40034	1340.01429	569.25293	-51.84098	1298.63172	716.53754	-371.97713	1268.31262	584.81107	-348.05915	1190.33678	743.14639	-362.81429	1160.81836	616.17128	-316.52065	1416.40225	892.51137	-84.93328	1203.34402	948.24154	-127.35926	1393.30452	892.34366	-305.94850	1200.35522	950.33282	-209.07970	1333.88273	1368.14031	-218.58872	1401.34968	1355.09023	-77.21159	1355.13475	1308.73856	-351.24151	1454.82049	1293.79595	-198.78131	1447.03146	1286.31053	-237.77899	1414.76840	1251.64276	0.09762	1294.21160	1070.21932	47.82441	1342.45332	1080.35469	92.96930	1399.82189	1005.70015	105.22762	1431.42903	864.23722	121.18884	1408.33795	866.97703	152.74437	1338.39824	1200.89021	-410.28799	1250.78390	995.48483	-373.77561	1275.96094	1007.88256	-434.30403	1323.24174	912.15399	-450.95451	1345.43873	784.89238	-441.84165	1310.46525	782.33663	-463.63725	1325.18422	815.77907	-78.77879	1299.44610	820.25753	-284.61763	1329.45626	830.46205	-113.55866	1324.09257	834.21156	-260.06894	
135	1.34000000	1450.52646	464.49547	-68.25065	1497.01578	409.51224	-79.26358	1470.04122	79.27554	-110.77012	1415.56529	53.90124	-152.72190	1583.85160	39.14444	-98.64179	1621.02606	62.45573	-155.15636	1201.02575	461.47444	-328.15499	1185.17012	370.18768	-318.05287	940.27467	166.07076	-307.60478	875.51582	185.75222	-264.15969	972.51959	47.60475	-307.78639	1024.46897	43.05379	-253.75985	1494.30108	297.05787	-77.05108	1428.03311	410.19504	-44.31095	1415.62371	293.62139	-48.36670	1133.42418	433.54579	-354.52193	1047.66960	346.22262	-360.08775	1425.10667	708.77455	-7.23741	1457.68594	602.57965	-33.41243	1402.21354	562.28399	-32.28092	1317.18507	675.38529	-16.16438	1350.86726	571.34539	-50.53209	1314.67375	716.09547	-372.02801	1287.28029	583.28315	-349.95182	1205.54149	740.31829	-362.99071	1178.60928	612.28651	-318.67829	1428.37461	894.77077	-84.52390	1214.92928	949.96329	-128.67094	1405.35926	893.17828	-305.30360	1212.33889	951.28169	-210.45741	1345.53259	1370.60547	-213.66096	1413.45088	1355.08095	-72.70861	1367.40937	1313.64214	-347.27698	1466.84335	1296.08895	-194.83068	1459.18357	1289.11273	-233.82382	1427.55358	1250.52849	2.76814	1307.92376	1068.20104	48.12161	1356.43366	1077.68242	93.40558	1414.06381	1003.10490	104.62826	1446.11118	861.40238	118.79987	1423.18406	863.81523	150.45191	1349.52282	1206.61132	-407.78045	1260.51460	1001.98524	-372.11459	1285.09864	1014.46385	-432.95103	1330.96594	918.37102	-451.50397	1351.32272	790.69261	-444.50161	1316.16290	788.93130	-465.72208	1336.81455	818.05636	-78.29117	1312.00094	820.91157	-284.26657	1341.17031	832.75664	-112.89517	1336.52706	835.11492	-259.30539	
136	1.35000000	1459.36203	465.29870	-67.60463	1504.51725	409.14495	-78.47935	1470.80670	79.29161	-110.58961	1415.80605	54.61578	-152.58171	1584.25486	38.65541	-98.76001	1621.61313	60.82900	-155.40616	1223.93578	458.07495	-331.77226	1205.60282	367.05902	-321.64689	952.75039	172.93092	-309.84478	890.25342	198.19871	-265.77512	976.49992	52.13441	-308.37358	1029.08506	45.20554	-255.19079	1499.56486	296.75466	-76.36306	1435.47407	411.13710	-43.66059	1420.81401	294.84567	-47.65680	1156.10394	432.04305	-358.38917	1067.17255	348.07302	-363.26056	1436.53131	710.36613	-6.77281	1468.23614	603.81718	-32.74643	1412.55994	563.99144	-31.42208	1328.45173	677.54937	-14.81652	1360.83540	573.42137	-49.33955	1331.07330	715.70373	-372.05899	1307.04799	581.81005	-351.83986	1221.09702	737.26413	-363.52336	1196.97710	608.13127	-321.11372	1440.26254	897.17542	-84.07852	1226.33659	951.72380	-130.04988	1417.17651	894.11570	-304.57575	1224.08787	952.25834	-211.89303	1356.80810	1373.01015	-208.90475	1425.23838	1355.11404	-68.42808	1379.46683	1318.56814	-343.40914	1478.52677	1298.40026	-191.05010	1471.06567	1291.91055	-230.02211	1440.12367	1249.53613	5.24262	1321.39938	1066.37450	48.39498	1370.23470	1075.19010	93.75998	1428.22253	1000.77535	103.92094	1460.89012	858.85706	116.21440	1438.11336	860.93722	147.96451	1360.65054	1212.40096	-405.38846	1270.31604	1008.49256	-370.48025	1294.31564	1021.08041	-431.69536	1338.88631	924.68945	-452.05866	1357.51217	796.67015	-447.02183	1322.33215	795.65721	-467.69173	1348.30139	820.46206	-77.77339	1324.41829	821.61223	-283.87545	1352.80517	835.15722	-112.12913	1348.78019	836.11067	-258.40688	
